<svg xmlns="http://www.w3.org/2000/svg" width="1080" height="660" viewBox="0 0 1080 660" role="img" aria-labelledby="route-title route-desc">
  <title id="route-title">route map for Prepare via for a first public release</title>
  <desc id="route-desc">Skill first: 60k to 140k tokens, 6 to 14 minutes, 5 checkpoints, suggested. Interface first: 100k to 240k tokens, 10 to 24 minutes, 5 checkpoints. Telemetry first: 160k to 380k tokens, 18 to 40 minutes, 5 checkpoints</desc>
  <defs>
    <filter id="dock-shadow" x="-8%" y="-30%" width="116%" height="170%" color-interpolation-filters="sRGB">
      <feDropShadow dx="0" dy="6" stdDeviation="7" flood-color="#000000" flood-opacity=".16"/>
      <feDropShadow dx="0" dy="2" stdDeviation="3.5" flood-color="#000000" flood-opacity=".09"/>
      <feDropShadow dx="0" dy="1" stdDeviation="1" flood-color="#000000" flood-opacity=".06"/>
    </filter>
  </defs>
  <style>
    text{font-family:-apple-system,BlinkMacSystemFont,"Segoe UI","Noto Sans SC",Arial,sans-serif;font-variant-numeric:tabular-nums}.title{font-size:22px;font-weight:600;fill:#1F1F1F}.subtitle{font-size:13px;font-weight:400;fill:#6B6B6B}.eyebrow{font-size:11px;font-weight:700;letter-spacing:1.1px;fill:#1F1F1F}.endpoint-sub{font-size:11px;font-weight:500;fill:#6B6B6B}.node-label{font-size:12px;font-weight:450;fill:#1F1F1F}.card-label{font-size:14px;font-weight:650;fill:#1F1F1F}.cost{font-size:24px;font-weight:600;fill:#1F1F1F}.unit{font-size:12px;font-weight:500;fill:#6B6B6B}.meta{font-size:12px;font-weight:600}.check-count{font-size:12px;font-weight:500;fill:#6B6B6B}.summary{font-size:12px;font-weight:400;fill:#6B6B6B}.card rect{transition:fill .18s ease,stroke .18s ease}.flow{opacity:.16;stroke-dasharray:2 15;animation:travel 1.25s linear infinite}.window-lights circle{transform-box:fill-box;transform-origin:center}.window-lights:hover circle{animation:light-pop .32s ease both}.window-lights circle:nth-child(2){animation-delay:.04s}.window-lights circle:nth-child(3){animation-delay:.08s}@keyframes travel{to{stroke-dashoffset:-34}}@keyframes light-pop{50%{transform:scale(1.2)}}@media(prefers-reduced-motion:reduce){.flow{animation:none}.window-lights circle{animation:none!important}.card rect{transition:none}}
  </style>
  <rect width="1080" height="660" rx="18" fill="#F4F4F4"/>
  <rect x="16" y="12" width="1048" height="636" rx="16" fill="#FFFFFF" stroke="#E5E5E5"/>
  <g class="window-lights" transform="translate(38 35)">
    <circle cx="0" cy="0" r="6" fill="#E25555"/>
    <circle cx="20" cy="0" r="6" fill="#E6A700"/>
    <circle cx="40" cy="0" r="6" fill="#32A05F"/>
  </g>
  <text x="100" y="40" class="eyebrow">via · a [p → q] project</text>
  <text x="1032" y="40" text-anchor="end" class="eyebrow subtle">ptoq.io</text>
  <text x="48" y="80" class="title">Prepare via for a first public release</text>
  <text x="48" y="104" class="subtitle">Choose how this gets built</text>
  <g class="map"><path d="M36 142H1044" stroke="#E8E8E8" stroke-width="1.35" stroke-dasharray="6 9"/><path d="M36 210H1044" stroke="#E8E8E8" stroke-width="1.35" stroke-dasharray="6 9"/><path d="M36 278H1044" stroke="#E8E8E8" stroke-width="1.35" stroke-dasharray="6 9"/><path d="M36 346H1044" stroke="#E8E8E8" stroke-width="1.35" stroke-dasharray="6 9"/><path d="M36 414H1044" stroke="#E8E8E8" stroke-width="1.35" stroke-dasharray="6 9"/><path class="edge e0" d="M72 278 C120.50999999999999 278 138.99 278 187.5 278" fill="none" stroke="#1F1F1F" stroke-width="6" stroke-linecap="round"/><path class="flow" d="M72 278 C120.50999999999999 278 138.99 278 187.5 278" fill="none" stroke="#1F1F1F" stroke-width="2" stroke-linecap="round"/><path class="edge e1" d="M187.5 278 C236.01 278 254.49 278 303 278" fill="none" stroke="#1F1F1F" stroke-width="6" stroke-linecap="round"/><path class="flow" d="M187.5 278 C236.01 278 254.49 278 303 278" fill="none" stroke="#1F1F1F" stroke-width="2" stroke-linecap="round"/><path class="edge e2" d="M303 278 C351.51 278 369.99 210 418.5 210" fill="none" stroke="#3AB9B1" stroke-width="5.5" stroke-linecap="round"/><path class="flow" d="M303 278 C351.51 278 369.99 210 418.5 210" fill="none" stroke="#3AB9B1" stroke-width="2" stroke-linecap="round"/><path class="edge e3" d="M418.5 210 C467.01 210 485.49 142 534 142" fill="none" stroke="#3AB9B1" stroke-width="3.5" stroke-linecap="round" stroke-dasharray="6 7"/><path class="flow" d="M418.5 210 C467.01 210 485.49 142 534 142" fill="none" stroke="#3AB9B1" stroke-width="2" stroke-linecap="round"/><path class="edge e4" d="M534 142 C582.51 142 600.99 210 649.5 210" fill="none" stroke="#3AB9B1" stroke-width="3.5" stroke-linecap="round" stroke-dasharray="6 7"/><path class="flow" d="M534 142 C582.51 142 600.99 210 649.5 210" fill="none" stroke="#3AB9B1" stroke-width="2" stroke-linecap="round"/><path class="edge e5" d="M418.5 210 C472.5 210 595.5 210 649.5 210" fill="none" stroke="#3AB9B1" stroke-width="5.5" stroke-linecap="round"/><path class="flow" d="M418.5 210 C472.5 210 595.5 210 649.5 210" fill="none" stroke="#3AB9B1" stroke-width="2" stroke-linecap="round"/><path class="edge e6" d="M649.5 210 C703.5 210 826.5 278 880.5 278" fill="none" stroke="#3AB9B1" stroke-width="5.5" stroke-linecap="round"/><path class="flow" d="M649.5 210 C703.5 210 826.5 278 880.5 278" fill="none" stroke="#3AB9B1" stroke-width="2" stroke-linecap="round"/><path class="edge e7" d="M303 278 C351.51 278 369.99 278 418.5 278" fill="none" stroke="#1F1F1F" stroke-width="6" stroke-linecap="round"/><path class="flow" d="M303 278 C351.51 278 369.99 278 418.5 278" fill="none" stroke="#1F1F1F" stroke-width="2" stroke-linecap="round"/><path class="edge e8" d="M418.5 278 C467.01 278 485.49 278 534 278" fill="none" stroke="#1F1F1F" stroke-width="6" stroke-linecap="round"/><path class="flow" d="M418.5 278 C467.01 278 485.49 278 534 278" fill="none" stroke="#1F1F1F" stroke-width="2" stroke-linecap="round"/><path class="edge e9" d="M534 278 C588 278 711 278 765 278" fill="none" stroke="#EB77B1" stroke-width="5.5" stroke-linecap="round"/><path class="flow" d="M534 278 C588 278 711 278 765 278" fill="none" stroke="#EB77B1" stroke-width="2" stroke-linecap="round"/><path class="edge e10" d="M534 278 C582.51 278 600.99 346 649.5 346" fill="none" stroke="#EB77B1" stroke-width="3.5" stroke-linecap="round" stroke-dasharray="6 7"/><path class="flow" d="M534 278 C582.51 278 600.99 346 649.5 346" fill="none" stroke="#EB77B1" stroke-width="2" stroke-linecap="round"/><path class="edge e11" d="M649.5 346 C698.01 346 716.49 278 765 278" fill="none" stroke="#EB77B1" stroke-width="3.5" stroke-linecap="round" stroke-dasharray="6 7"/><path class="flow" d="M649.5 346 C698.01 346 716.49 278 765 278" fill="none" stroke="#EB77B1" stroke-width="2" stroke-linecap="round"/><path class="edge e12" d="M765 278 C813.51 278 831.99 278 880.5 278" fill="none" stroke="#EB77B1" stroke-width="5.5" stroke-linecap="round"/><path class="flow" d="M765 278 C813.51 278 831.99 278 880.5 278" fill="none" stroke="#EB77B1" stroke-width="2" stroke-linecap="round"/><path class="edge e13" d="M534 278 C582.51 278 600.99 414 649.5 414" fill="none" stroke="#F3883B" stroke-width="5.5" stroke-linecap="round"/><path class="flow" d="M534 278 C582.51 278 600.99 414 649.5 414" fill="none" stroke="#F3883B" stroke-width="2" stroke-linecap="round"/><path class="edge e14" d="M649.5 414 C698.01 414 716.49 414 765 414" fill="none" stroke="#F3883B" stroke-width="5.5" stroke-linecap="round"/><path class="flow" d="M649.5 414 C698.01 414 716.49 414 765 414" fill="none" stroke="#F3883B" stroke-width="2" stroke-linecap="round"/><path class="edge e15" d="M765 414 C813.51 414 831.99 278 880.5 278" fill="none" stroke="#F3883B" stroke-width="5.5" stroke-linecap="round"/><path class="flow" d="M765 414 C813.51 414 831.99 278 880.5 278" fill="none" stroke="#F3883B" stroke-width="2" stroke-linecap="round"/><path class="edge e16" d="M880.5 278 C929.01 278 947.49 278 996 278" fill="none" stroke="#1F1F1F" stroke-width="6" stroke-linecap="round"/><path class="flow" d="M880.5 278 C929.01 278 947.49 278 996 278" fill="none" stroke="#1F1F1F" stroke-width="2" stroke-linecap="round"/><g class="node"><circle cx="72" cy="278" r="11" fill="#FFFFFF" stroke="#1F1F1F" stroke-width="3.5"/></g><g class="node"><circle cx="187.5" cy="278" r="11" fill="#FFFFFF" stroke="#1F1F1F" stroke-width="3.5"/><text x="187.5" y="307" text-anchor="middle" class="node-label">inspect task</text></g><g class="node"><circle cx="303" cy="278" r="11" fill="#FFFFFF" stroke="#1F1F1F" stroke-width="3.5"/><g transform="translate(316 261)"><circle r="6" fill="#32A05F" stroke="#FFFFFF" stroke-width="3"/></g><text x="303" y="307" text-anchor="middle" class="node-label">frame routes</text></g><g class="node"><circle cx="418.5" cy="210" r="11" fill="#FFFFFF" stroke="#3AB9B1" stroke-width="3.5"/><text x="418.5" y="239" text-anchor="middle" class="node-label">lock contract</text></g><g class="node"><circle cx="534" cy="142" r="11" fill="#FFFFFF" stroke="#3AB9B1" stroke-width="3.5"/><g transform="translate(547 125)"><circle r="6" fill="#E6A700" stroke="#FFFFFF" stroke-width="3"/></g><text x="534" y="171" text-anchor="middle" class="node-label">schema probe</text></g><g class="node"><circle cx="649.5" cy="210" r="11" fill="#FFFFFF" stroke="#3AB9B1" stroke-width="3.5"/><text x="649.5" y="239" text-anchor="middle" class="node-label">render map</text></g><g class="node"><circle cx="418.5" cy="278" r="11" fill="#FFFFFF" stroke="#1F1F1F" stroke-width="3.5"/><text x="418.5" y="307" text-anchor="middle" class="node-label">wire graph</text></g><g class="node"><circle cx="534" cy="278" r="11" fill="#FFFFFF" stroke="#1F1F1F" stroke-width="3.5"/><text x="534" y="307" text-anchor="middle" class="node-label">shared ui</text></g><g class="node"><circle cx="649.5" cy="346" r="11" fill="#FFFFFF" stroke="#EB77B1" stroke-width="3.5"/><text x="649.5" y="375" text-anchor="middle" class="node-label">motion pass</text></g><g class="node"><circle cx="765" cy="278" r="11" fill="#FFFFFF" stroke="#EB77B1" stroke-width="3.5"/><g transform="translate(778 261)"><circle r="6" fill="#E6A700" stroke="#FFFFFF" stroke-width="3"/></g><text x="765" y="307" text-anchor="middle" class="node-label">5 user check</text></g><g class="node"><circle cx="649.5" cy="414" r="11" fill="#FFFFFF" stroke="#F3883B" stroke-width="3.5"/><text x="649.5" y="443" text-anchor="middle" class="node-label">runtime hooks</text></g><g class="node"><circle cx="765" cy="414" r="11" fill="#FFFFFF" stroke="#F3883B" stroke-width="3.5"/><g transform="translate(778 397)"><circle r="6" fill="#E25555" stroke="#FFFFFF" stroke-width="3"/></g><text x="765" y="443" text-anchor="middle" class="node-label">measure run</text></g><g class="node"><circle cx="880.5" cy="278" r="11" fill="#FFFFFF" stroke="#1F1F1F" stroke-width="3.5"/><text x="880.5" y="307" text-anchor="middle" class="node-label">validate</text></g><g class="node"><circle cx="996" cy="278" r="11" fill="#FFFFFF" stroke="#1F1F1F" stroke-width="3.5"/></g></g>
  <g class="endpoint" transform="translate(72 278)">
    <text y="-24" text-anchor="middle" class="eyebrow">START</text>
    <text y="29" text-anchor="middle" class="endpoint-sub">from scratch</text>
  </g><g class="endpoint" transform="translate(996 278)">
    <text y="-24" text-anchor="middle" class="eyebrow">DONE</text>
    <text y="29" text-anchor="middle" class="endpoint-sub">release ready</text>
  </g>
  <rect class="route-dock" x="32" y="468" width="1016" height="164" rx="22" fill="#FFFFFF" stroke="#DEDEDE" filter="url(#dock-shadow)"/>
  <g class="card selected" data-route-id="skill-first" transform="translate(48 484)" aria-label="Skill first, 60k–140k tokens, 6 to 14 minutes, 5 engineering checks">
      <rect width="320" height="132" rx="12" fill="#F2F5F5" stroke="#AEBFC0" stroke-width="1"/>
      <text x="16" y="33" class="card-label">Skill first</text>
      <text x="16" y="67" class="cost">60k–140k<tspan class="unit"> tok</tspan></text>
      <text x="16" y="87" class="meta" fill="#247C78">6–14 min</text>
      <g class="gate-light" transform="translate(238 84)" aria-label="5 engineering checks">
    <title>5 engineering checks</title>
    <g transform="translate(0 -9)" fill="#1F1F1F">
      <rect x="5" y="1.5" width="8" height="15" rx="2.4" fill="none" stroke="#1F1F1F" stroke-width="1.8"/>
      <circle cx="9" cy="6" r="1.45"/>
      <circle cx="9" cy="12" r="1.45"/>
      <path d="M5 4.8H2.2c.25 1.45 1.15 2.45 2.8 2.85V4.8Zm8 0h2.8c-.25 1.45-1.15 2.45-2.8 2.85V4.8ZM5 10.8H2.2c.25 1.45 1.15 2.45 2.8 2.85v-2.85Zm8 0h2.8c-.25 1.45-1.15 2.45-2.8 2.85v-2.85Z"/>
    </g>
    <text x="22" y="4" class="check-count">5 checks</text>
  </g>
      <text x="16" y="117" class="summary">Small contract, fast proof</text>
    </g><g class="card" data-route-id="ui-first" transform="translate(380 484)" aria-label="Interface first, 100k–240k tokens, 10 to 24 minutes, 5 engineering checks">
      <rect width="320" height="132" rx="12" fill="#FFFFFF" stroke="#E5E5E5" stroke-width="1"/>
      <text x="16" y="33" class="card-label">Interface first</text>
      <text x="16" y="67" class="cost">100k–240k<tspan class="unit"> tok</tspan></text>
      <text x="16" y="87" class="meta" fill="#A84177">10–24 min</text>
      <g class="gate-light" transform="translate(238 84)" aria-label="5 engineering checks">
    <title>5 engineering checks</title>
    <g transform="translate(0 -9)" fill="#1F1F1F">
      <rect x="5" y="1.5" width="8" height="15" rx="2.4" fill="none" stroke="#1F1F1F" stroke-width="1.8"/>
      <circle cx="9" cy="6" r="1.45"/>
      <circle cx="9" cy="12" r="1.45"/>
      <path d="M5 4.8H2.2c.25 1.45 1.15 2.45 2.8 2.85V4.8Zm8 0h2.8c-.25 1.45-1.15 2.45-2.8 2.85V4.8ZM5 10.8H2.2c.25 1.45 1.15 2.45 2.8 2.85v-2.85Zm8 0h2.8c-.25 1.45-1.15 2.45-2.8 2.85v-2.85Z"/>
    </g>
    <text x="22" y="4" class="check-count">5 checks</text>
  </g>
      <text x="16" y="117" class="summary">Map before workflow</text>
    </g><g class="card" data-route-id="telemetry-first" transform="translate(712 484)" aria-label="Telemetry first, 160k–380k tokens, 18 to 40 minutes, 5 engineering checks">
      <rect width="320" height="132" rx="12" fill="#FFFFFF" stroke="#E5E5E5" stroke-width="1"/>
      <text x="16" y="33" class="card-label">Telemetry first</text>
      <text x="16" y="67" class="cost">160k–380k<tspan class="unit"> tok</tspan></text>
      <text x="16" y="87" class="meta" fill="#A95227">18–40 min</text>
      <g class="gate-light" transform="translate(238 84)" aria-label="5 engineering checks">
    <title>5 engineering checks</title>
    <g transform="translate(0 -9)" fill="#1F1F1F">
      <rect x="5" y="1.5" width="8" height="15" rx="2.4" fill="none" stroke="#1F1F1F" stroke-width="1.8"/>
      <circle cx="9" cy="6" r="1.45"/>
      <circle cx="9" cy="12" r="1.45"/>
      <path d="M5 4.8H2.2c.25 1.45 1.15 2.45 2.8 2.85V4.8Zm8 0h2.8c-.25 1.45-1.15 2.45-2.8 2.85V4.8ZM5 10.8H2.2c.25 1.45 1.15 2.45 2.8 2.85v-2.85Zm8 0h2.8c-.25 1.45-1.15 2.45-2.8 2.85v-2.85Z"/>
    </g>
    <text x="22" y="4" class="check-count">5 checks</text>
  </g>
      <text x="16" y="117" class="summary">Measure cost before build</text>
    </g>
  </svg>
